<mxfile host="app.diagrams.net" agent="Mozilla/5.0 (Windows NT 10.0; Win64; x64) AppleWebKit/537.36 (KHTML, like Gecko) Chrome/131.0.0.0 Safari/537.36" version="24.9.3">
  <diagram name="Page-1" id="SnXoqZMUd9KlnvrUtpQJ">
    <mxGraphModel dx="795" dy="696" grid="1" gridSize="10" guides="1" tooltips="1" connect="1" arrows="1" fold="1" page="1" pageScale="1" pageWidth="827" pageHeight="1169" math="0" shadow="0">
      <root>
        <mxCell id="0" />
        <mxCell id="1" parent="0" />
        <mxCell id="HurLthOQQEkBz4kyL5cL-1" value="Top module" style="swimlane;whiteSpace=wrap;html=1;fillColor=#FFFFFF;swimlaneFillColor=#CCCCCC;strokeColor=#000000;" vertex="1" parent="1">
          <mxGeometry x="40" y="60" width="700" height="370" as="geometry" />
        </mxCell>
        <mxCell id="HurLthOQQEkBz4kyL5cL-14" style="edgeStyle=orthogonalEdgeStyle;rounded=0;orthogonalLoop=1;jettySize=auto;html=1;exitX=0.998;exitY=0.344;exitDx=0;exitDy=0;entryX=-0.002;entryY=0.183;entryDx=0;entryDy=0;entryPerimeter=0;exitPerimeter=0;strokeColor=#AB781F;" edge="1" parent="HurLthOQQEkBz4kyL5cL-1" source="HurLthOQQEkBz4kyL5cL-4" target="HurLthOQQEkBz4kyL5cL-2">
          <mxGeometry relative="1" as="geometry">
            <Array as="points" />
          </mxGeometry>
        </mxCell>
        <mxCell id="HurLthOQQEkBz4kyL5cL-15" style="edgeStyle=orthogonalEdgeStyle;rounded=0;orthogonalLoop=1;jettySize=auto;html=1;exitX=1;exitY=0.75;exitDx=0;exitDy=0;fillColor=#ffe6cc;strokeColor=#AB781F;" edge="1" parent="HurLthOQQEkBz4kyL5cL-1" source="HurLthOQQEkBz4kyL5cL-4">
          <mxGeometry relative="1" as="geometry">
            <mxPoint x="370" y="101.5" as="targetPoint" />
          </mxGeometry>
        </mxCell>
        <mxCell id="HurLthOQQEkBz4kyL5cL-27" style="edgeStyle=orthogonalEdgeStyle;rounded=0;orthogonalLoop=1;jettySize=auto;html=1;exitX=0.5;exitY=1;exitDx=0;exitDy=0;dashed=1;fillColor=#f5f5f5;strokeColor=#666666;startArrow=classic;startFill=1;endArrow=oval;endFill=1;" edge="1" parent="HurLthOQQEkBz4kyL5cL-1" source="HurLthOQQEkBz4kyL5cL-4">
          <mxGeometry relative="1" as="geometry">
            <mxPoint x="90" y="330" as="targetPoint" />
            <Array as="points">
              <mxPoint x="190" y="140" />
              <mxPoint x="90" y="140" />
            </Array>
          </mxGeometry>
        </mxCell>
        <mxCell id="HurLthOQQEkBz4kyL5cL-4" value="tracker_sensor" style="rounded=1;whiteSpace=wrap;html=1;fillColor=#ffe6cc;strokeColor=#d79b00;" vertex="1" parent="HurLthOQQEkBz4kyL5cL-1">
          <mxGeometry x="100" y="56.5" width="180" height="60" as="geometry" />
        </mxCell>
        <mxCell id="HurLthOQQEkBz4kyL5cL-26" style="edgeStyle=orthogonalEdgeStyle;rounded=0;orthogonalLoop=1;jettySize=auto;html=1;startArrow=classic;startFill=1;endArrow=oval;endFill=1;fillColor=#f5f5f5;strokeColor=#666666;dashed=1;" edge="1" parent="HurLthOQQEkBz4kyL5cL-1">
          <mxGeometry relative="1" as="geometry">
            <mxPoint x="320" y="329" as="targetPoint" />
            <mxPoint x="445.9743589743589" y="308.25" as="sourcePoint" />
            <Array as="points">
              <mxPoint x="446" y="329" />
            </Array>
          </mxGeometry>
        </mxCell>
        <mxCell id="HurLthOQQEkBz4kyL5cL-5" value="Seven Segment&lt;div&gt;(for debugging)&lt;/div&gt;" style="rounded=1;whiteSpace=wrap;html=1;fillColor=#f5f5f5;fontColor=#333333;strokeColor=#666666;" vertex="1" parent="HurLthOQQEkBz4kyL5cL-1">
          <mxGeometry x="340" y="240" width="151" height="69.25" as="geometry" />
        </mxCell>
        <mxCell id="HurLthOQQEkBz4kyL5cL-12" value="" style="group" vertex="1" connectable="0" parent="HurLthOQQEkBz4kyL5cL-1">
          <mxGeometry x="340" y="55.25" width="150" height="120" as="geometry" />
        </mxCell>
        <mxCell id="HurLthOQQEkBz4kyL5cL-2" value="motor&amp;nbsp;&lt;div&gt;&lt;br&gt;&lt;/div&gt;&lt;div&gt;&lt;br&gt;&lt;/div&gt;&lt;div&gt;&lt;br&gt;&lt;/div&gt;&lt;div&gt;&lt;br&gt;&lt;/div&gt;&lt;div&gt;&lt;br&gt;&lt;/div&gt;" style="rounded=1;whiteSpace=wrap;html=1;fillColor=#e1d5e7;strokeColor=#9673a6;" vertex="1" parent="HurLthOQQEkBz4kyL5cL-12">
          <mxGeometry width="150" height="120" as="geometry" />
        </mxCell>
        <mxCell id="HurLthOQQEkBz4kyL5cL-8" value="" style="group" vertex="1" connectable="0" parent="HurLthOQQEkBz4kyL5cL-12">
          <mxGeometry x="15" y="40" width="120" height="70" as="geometry" />
        </mxCell>
        <mxCell id="HurLthOQQEkBz4kyL5cL-6" value="motor_pwm&lt;div&gt;&lt;br&gt;&lt;/div&gt;&lt;div&gt;&lt;br&gt;&lt;/div&gt;&lt;div&gt;&lt;br&gt;&lt;/div&gt;" style="rounded=1;whiteSpace=wrap;html=1;fillColor=#E6E6E6;" vertex="1" parent="HurLthOQQEkBz4kyL5cL-8">
          <mxGeometry width="120" height="70" as="geometry" />
        </mxCell>
        <mxCell id="HurLthOQQEkBz4kyL5cL-7" value="PWM_gen" style="rounded=1;whiteSpace=wrap;html=1;fillColor=#CCCCCC;" vertex="1" parent="HurLthOQQEkBz4kyL5cL-8">
          <mxGeometry x="15" y="30" width="90" height="30" as="geometry" />
        </mxCell>
        <mxCell id="HurLthOQQEkBz4kyL5cL-50" style="edgeStyle=orthogonalEdgeStyle;rounded=0;orthogonalLoop=1;jettySize=auto;html=1;exitX=1.001;exitY=0.355;exitDx=0;exitDy=0;exitPerimeter=0;endArrow=none;endFill=0;fillColor=#e1d5e7;strokeColor=#9673a6;dashed=1;" edge="1" parent="HurLthOQQEkBz4kyL5cL-12" source="HurLthOQQEkBz4kyL5cL-6">
          <mxGeometry relative="1" as="geometry">
            <mxPoint x="150" y="64.75" as="targetPoint" />
            <Array as="points">
              <mxPoint x="150" y="65" />
            </Array>
          </mxGeometry>
        </mxCell>
        <mxCell id="HurLthOQQEkBz4kyL5cL-51" style="edgeStyle=orthogonalEdgeStyle;rounded=0;orthogonalLoop=1;jettySize=auto;html=1;exitX=0.999;exitY=0.64;exitDx=0;exitDy=0;exitPerimeter=0;endArrow=none;endFill=0;fillColor=#e1d5e7;strokeColor=#9673a6;dashed=1;entryX=0.999;entryY=0.707;entryDx=0;entryDy=0;entryPerimeter=0;" edge="1" parent="HurLthOQQEkBz4kyL5cL-12" source="HurLthOQQEkBz4kyL5cL-6" target="HurLthOQQEkBz4kyL5cL-2">
          <mxGeometry relative="1" as="geometry">
            <mxPoint x="145" y="75" as="sourcePoint" />
            <mxPoint x="160" y="74.75" as="targetPoint" />
            <Array as="points">
              <mxPoint x="145" y="85" />
            </Array>
          </mxGeometry>
        </mxCell>
        <mxCell id="HurLthOQQEkBz4kyL5cL-13" value="" style="group" vertex="1" connectable="0" parent="HurLthOQQEkBz4kyL5cL-1">
          <mxGeometry x="100" y="150.5" width="180" height="160" as="geometry" />
        </mxCell>
        <mxCell id="HurLthOQQEkBz4kyL5cL-28" style="edgeStyle=orthogonalEdgeStyle;rounded=0;orthogonalLoop=1;jettySize=auto;html=1;exitX=0.5;exitY=1;exitDx=0;exitDy=0;fillColor=#f5f5f5;strokeColor=#666666;dashed=1;startArrow=classic;startFill=1;endArrow=oval;endFill=1;" edge="1" parent="HurLthOQQEkBz4kyL5cL-13" source="HurLthOQQEkBz4kyL5cL-3">
          <mxGeometry relative="1" as="geometry">
            <mxPoint x="90" y="179.5" as="targetPoint" />
          </mxGeometry>
        </mxCell>
        <mxCell id="HurLthOQQEkBz4kyL5cL-3" value="sonic_top&lt;div&gt;&lt;br&gt;&lt;/div&gt;&lt;div&gt;&lt;br&gt;&lt;/div&gt;&lt;div&gt;&lt;br&gt;&lt;/div&gt;&lt;div&gt;&lt;br&gt;&lt;/div&gt;&lt;div&gt;&lt;br&gt;&lt;/div&gt;&lt;div&gt;&lt;br&gt;&lt;/div&gt;&lt;div&gt;&lt;br&gt;&lt;/div&gt;&lt;div&gt;&lt;br&gt;&lt;/div&gt;" style="rounded=1;whiteSpace=wrap;html=1;fillColor=#d5e8d4;strokeColor=#82b366;" vertex="1" parent="HurLthOQQEkBz4kyL5cL-13">
          <mxGeometry width="180" height="160" as="geometry" />
        </mxCell>
        <mxCell id="HurLthOQQEkBz4kyL5cL-41" style="edgeStyle=orthogonalEdgeStyle;rounded=0;orthogonalLoop=1;jettySize=auto;html=1;entryX=0;entryY=0.5;entryDx=0;entryDy=0;" edge="1" parent="HurLthOQQEkBz4kyL5cL-13" source="HurLthOQQEkBz4kyL5cL-9" target="HurLthOQQEkBz4kyL5cL-11">
          <mxGeometry relative="1" as="geometry" />
        </mxCell>
        <mxCell id="HurLthOQQEkBz4kyL5cL-9" value="div clk" style="rounded=1;whiteSpace=wrap;html=1;fillColor=#f5f5f5;fontColor=#333333;strokeColor=#666666;" vertex="1" parent="HurLthOQQEkBz4kyL5cL-13">
          <mxGeometry x="20" y="100" width="55" height="40" as="geometry" />
        </mxCell>
        <mxCell id="HurLthOQQEkBz4kyL5cL-10" value="TrigSignal" style="rounded=1;whiteSpace=wrap;html=1;fillColor=#E6E6E6;" vertex="1" parent="HurLthOQQEkBz4kyL5cL-13">
          <mxGeometry x="90" y="50" width="70" height="40" as="geometry" />
        </mxCell>
        <mxCell id="HurLthOQQEkBz4kyL5cL-42" style="edgeStyle=orthogonalEdgeStyle;rounded=0;orthogonalLoop=1;jettySize=auto;html=1;endArrow=none;endFill=0;dashed=1;fillColor=#d5e8d4;strokeColor=#82b366;" edge="1" parent="HurLthOQQEkBz4kyL5cL-13" source="HurLthOQQEkBz4kyL5cL-11">
          <mxGeometry relative="1" as="geometry">
            <mxPoint x="180" y="119.5" as="targetPoint" />
            <Array as="points">
              <mxPoint x="180" y="120" />
            </Array>
          </mxGeometry>
        </mxCell>
        <mxCell id="HurLthOQQEkBz4kyL5cL-11" value="PosCounter" style="rounded=1;whiteSpace=wrap;html=1;fillColor=#E6E6E6;" vertex="1" parent="HurLthOQQEkBz4kyL5cL-13">
          <mxGeometry x="90" y="100" width="70" height="40" as="geometry" />
        </mxCell>
        <mxCell id="HurLthOQQEkBz4kyL5cL-44" style="edgeStyle=orthogonalEdgeStyle;rounded=0;orthogonalLoop=1;jettySize=auto;html=1;exitX=1;exitY=0.5;exitDx=0;exitDy=0;entryX=1.001;entryY=0.435;entryDx=0;entryDy=0;entryPerimeter=0;fillColor=#d5e8d4;strokeColor=#82b366;endArrow=none;endFill=0;dashed=1;" edge="1" parent="HurLthOQQEkBz4kyL5cL-13" source="HurLthOQQEkBz4kyL5cL-10" target="HurLthOQQEkBz4kyL5cL-3">
          <mxGeometry relative="1" as="geometry" />
        </mxCell>
        <mxCell id="HurLthOQQEkBz4kyL5cL-16" value="move" style="text;html=1;align=center;verticalAlign=middle;whiteSpace=wrap;rounded=0;fontColor=#AB781F;fontSize=9;" vertex="1" parent="HurLthOQQEkBz4kyL5cL-1">
          <mxGeometry x="280" y="55.25" width="60" height="30" as="geometry" />
        </mxCell>
        <mxCell id="HurLthOQQEkBz4kyL5cL-18" value="recovery" style="text;html=1;align=center;verticalAlign=middle;whiteSpace=wrap;rounded=0;fontColor=#AB781F;fontSize=9;" vertex="1" parent="HurLthOQQEkBz4kyL5cL-1">
          <mxGeometry x="280" y="80" width="60" height="30" as="geometry" />
        </mxCell>
        <mxCell id="HurLthOQQEkBz4kyL5cL-20" style="edgeStyle=orthogonalEdgeStyle;rounded=0;orthogonalLoop=1;jettySize=auto;html=1;exitX=1;exitY=0.75;exitDx=0;exitDy=0;entryX=0;entryY=0.75;entryDx=0;entryDy=0;fillColor=#d5e8d4;strokeColor=#599650;" edge="1" parent="HurLthOQQEkBz4kyL5cL-1" source="HurLthOQQEkBz4kyL5cL-3" target="HurLthOQQEkBz4kyL5cL-2">
          <mxGeometry relative="1" as="geometry">
            <Array as="points">
              <mxPoint x="290" y="270" />
              <mxPoint x="290" y="145" />
            </Array>
          </mxGeometry>
        </mxCell>
        <mxCell id="HurLthOQQEkBz4kyL5cL-21" value="distance" style="text;html=1;align=center;verticalAlign=middle;whiteSpace=wrap;rounded=0;fontColor=#599650;fontSize=9;" vertex="1" parent="HurLthOQQEkBz4kyL5cL-1">
          <mxGeometry x="280" y="116.5" width="60" height="30" as="geometry" />
        </mxCell>
        <mxCell id="HurLthOQQEkBz4kyL5cL-25" style="edgeStyle=orthogonalEdgeStyle;rounded=0;orthogonalLoop=1;jettySize=auto;html=1;entryX=0.5;entryY=1;entryDx=0;entryDy=0;dashed=1;fillColor=#f5f5f5;strokeColor=#666666;" edge="1" parent="HurLthOQQEkBz4kyL5cL-1" target="HurLthOQQEkBz4kyL5cL-2">
          <mxGeometry relative="1" as="geometry">
            <mxPoint x="370" y="178.75" as="targetPoint" />
            <mxPoint x="30" y="328.7500000000001" as="sourcePoint" />
            <Array as="points">
              <mxPoint x="320" y="329" />
              <mxPoint x="320" y="200" />
              <mxPoint x="415" y="200" />
            </Array>
          </mxGeometry>
        </mxCell>
        <mxCell id="HurLthOQQEkBz4kyL5cL-23" value="clk&lt;div&gt;&lt;span style=&quot;background-color: initial;&quot;&gt;&amp;amp;&lt;/span&gt;&lt;/div&gt;&lt;div&gt;&lt;span style=&quot;background-color: initial;&quot;&gt;rst&lt;/span&gt;&lt;/div&gt;" style="text;html=1;align=center;verticalAlign=middle;whiteSpace=wrap;rounded=0;fontColor=#666666;" vertex="1" parent="HurLthOQQEkBz4kyL5cL-1">
          <mxGeometry x="20" y="296.5" width="40" height="53.5" as="geometry" />
        </mxCell>
        <mxCell id="HurLthOQQEkBz4kyL5cL-39" style="edgeStyle=orthogonalEdgeStyle;rounded=0;orthogonalLoop=1;jettySize=auto;html=1;entryX=0;entryY=0.25;entryDx=0;entryDy=0;" edge="1" parent="HurLthOQQEkBz4kyL5cL-1" source="HurLthOQQEkBz4kyL5cL-29" target="HurLthOQQEkBz4kyL5cL-3">
          <mxGeometry relative="1" as="geometry" />
        </mxCell>
        <mxCell id="HurLthOQQEkBz4kyL5cL-29" value="echo" style="text;html=1;align=left;verticalAlign=middle;whiteSpace=wrap;rounded=0;" vertex="1" parent="HurLthOQQEkBz4kyL5cL-1">
          <mxGeometry x="20" y="175.5" width="30" height="30" as="geometry" />
        </mxCell>
        <mxCell id="HurLthOQQEkBz4kyL5cL-54" style="edgeStyle=orthogonalEdgeStyle;rounded=0;orthogonalLoop=1;jettySize=auto;html=1;entryX=1;entryY=0.5;entryDx=0;entryDy=0;fillColor=#e1d5e7;strokeColor=#9673a6;dashed=1;" edge="1" parent="HurLthOQQEkBz4kyL5cL-1" source="HurLthOQQEkBz4kyL5cL-34" target="HurLthOQQEkBz4kyL5cL-53">
          <mxGeometry relative="1" as="geometry">
            <Array as="points">
              <mxPoint x="70" y="131" />
              <mxPoint x="70" y="350" />
              <mxPoint x="545" y="350" />
            </Array>
          </mxGeometry>
        </mxCell>
        <mxCell id="HurLthOQQEkBz4kyL5cL-34" value="enable" style="text;html=1;align=left;verticalAlign=middle;whiteSpace=wrap;rounded=0;fontStyle=1" vertex="1" parent="HurLthOQQEkBz4kyL5cL-1">
          <mxGeometry x="20" y="116.5" width="40" height="30" as="geometry" />
        </mxCell>
        <mxCell id="HurLthOQQEkBz4kyL5cL-37" style="edgeStyle=orthogonalEdgeStyle;rounded=0;orthogonalLoop=1;jettySize=auto;html=1;entryX=0;entryY=0.5;entryDx=0;entryDy=0;" edge="1" parent="HurLthOQQEkBz4kyL5cL-1" source="HurLthOQQEkBz4kyL5cL-32" target="HurLthOQQEkBz4kyL5cL-4">
          <mxGeometry relative="1" as="geometry" />
        </mxCell>
        <mxCell id="HurLthOQQEkBz4kyL5cL-32" value="right&lt;span style=&quot;color: rgba(0, 0, 0, 0); font-family: monospace; font-size: 0px; text-wrap-mode: nowrap;&quot;&gt;%3CmxGraphModel%3E%3Croot%3E%3CmxCell%20id%3D%220%22%2F%3E%3CmxCell%20id%3D%221%22%20parent%3D%220%22%2F%3E%3CmxCell%20id%3D%222%22%20value%3D%22left_track%22%20style%3D%22text%3Bhtml%3D1%3Balign%3Dcenter%3BverticalAlign%3Dmiddle%3BwhiteSpace%3Dwrap%3Brounded%3D0%3B%22%20vertex%3D%221%22%20parent%3D%221%22%3E%3CmxGeometry%20x%3D%22160%22%20y%3D%22246.5%22%20width%3D%2260%22%20height%3D%2230%22%20as%3D%22geometry%22%2F%3E%3C%2FmxCell%3E%3C%2Froot%3E%3C%2FmxGraphModel%3E&lt;/span&gt;_track" style="text;html=1;align=left;verticalAlign=middle;whiteSpace=wrap;rounded=0;" vertex="1" parent="HurLthOQQEkBz4kyL5cL-1">
          <mxGeometry x="20" y="71.5" width="60" height="30" as="geometry" />
        </mxCell>
        <mxCell id="HurLthOQQEkBz4kyL5cL-38" style="edgeStyle=orthogonalEdgeStyle;rounded=0;orthogonalLoop=1;jettySize=auto;html=1;entryX=0;entryY=0.75;entryDx=0;entryDy=0;" edge="1" parent="HurLthOQQEkBz4kyL5cL-1" source="HurLthOQQEkBz4kyL5cL-33" target="HurLthOQQEkBz4kyL5cL-4">
          <mxGeometry relative="1" as="geometry" />
        </mxCell>
        <mxCell id="HurLthOQQEkBz4kyL5cL-33" value="mid_track" style="text;html=1;align=left;verticalAlign=middle;whiteSpace=wrap;rounded=0;" vertex="1" parent="HurLthOQQEkBz4kyL5cL-1">
          <mxGeometry x="20" y="86.5" width="60" height="30" as="geometry" />
        </mxCell>
        <mxCell id="HurLthOQQEkBz4kyL5cL-35" style="edgeStyle=orthogonalEdgeStyle;rounded=0;orthogonalLoop=1;jettySize=auto;html=1;entryX=0;entryY=0.25;entryDx=0;entryDy=0;" edge="1" parent="HurLthOQQEkBz4kyL5cL-1" source="HurLthOQQEkBz4kyL5cL-30" target="HurLthOQQEkBz4kyL5cL-4">
          <mxGeometry relative="1" as="geometry" />
        </mxCell>
        <mxCell id="HurLthOQQEkBz4kyL5cL-30" value="left_track" style="text;html=1;align=left;verticalAlign=middle;whiteSpace=wrap;rounded=0;" vertex="1" parent="HurLthOQQEkBz4kyL5cL-1">
          <mxGeometry x="20" y="56.5" width="60" height="30" as="geometry" />
        </mxCell>
        <mxCell id="HurLthOQQEkBz4kyL5cL-45" style="edgeStyle=orthogonalEdgeStyle;rounded=0;orthogonalLoop=1;jettySize=auto;html=1;startArrow=classic;startFill=1;endArrow=none;endFill=0;" edge="1" parent="HurLthOQQEkBz4kyL5cL-1" source="HurLthOQQEkBz4kyL5cL-43">
          <mxGeometry relative="1" as="geometry">
            <mxPoint x="280" y="220" as="targetPoint" />
            <Array as="points">
              <mxPoint x="555" y="220" />
              <mxPoint x="330" y="220" />
              <mxPoint x="280" y="221" />
            </Array>
          </mxGeometry>
        </mxCell>
        <mxCell id="HurLthOQQEkBz4kyL5cL-43" value="trig" style="text;html=1;align=center;verticalAlign=middle;whiteSpace=wrap;rounded=0;" vertex="1" parent="HurLthOQQEkBz4kyL5cL-1">
          <mxGeometry x="620" y="205.5" width="30" height="30" as="geometry" />
        </mxCell>
        <mxCell id="HurLthOQQEkBz4kyL5cL-48" style="edgeStyle=orthogonalEdgeStyle;rounded=0;orthogonalLoop=1;jettySize=auto;html=1;startArrow=classic;startFill=1;endArrow=none;endFill=0;" edge="1" parent="HurLthOQQEkBz4kyL5cL-1" source="HurLthOQQEkBz4kyL5cL-46">
          <mxGeometry relative="1" as="geometry">
            <mxPoint x="490" y="120" as="targetPoint" />
          </mxGeometry>
        </mxCell>
        <mxCell id="HurLthOQQEkBz4kyL5cL-46" value="left_pwm" style="text;html=1;align=left;verticalAlign=middle;whiteSpace=wrap;rounded=0;" vertex="1" parent="HurLthOQQEkBz4kyL5cL-1">
          <mxGeometry x="580" y="110" width="70" height="20" as="geometry" />
        </mxCell>
        <mxCell id="HurLthOQQEkBz4kyL5cL-47" value="right_pwm" style="text;html=1;align=left;verticalAlign=middle;whiteSpace=wrap;rounded=0;" vertex="1" parent="HurLthOQQEkBz4kyL5cL-1">
          <mxGeometry x="580" y="130.5" width="70" height="20" as="geometry" />
        </mxCell>
        <mxCell id="HurLthOQQEkBz4kyL5cL-49" style="edgeStyle=orthogonalEdgeStyle;rounded=0;orthogonalLoop=1;jettySize=auto;html=1;startArrow=classic;startFill=1;endArrow=none;endFill=0;" edge="1" parent="HurLthOQQEkBz4kyL5cL-1" source="HurLthOQQEkBz4kyL5cL-47">
          <mxGeometry relative="1" as="geometry">
            <mxPoint x="490" y="140" as="targetPoint" />
          </mxGeometry>
        </mxCell>
        <mxCell id="HurLthOQQEkBz4kyL5cL-63" style="edgeStyle=orthogonalEdgeStyle;rounded=0;orthogonalLoop=1;jettySize=auto;html=1;" edge="1" parent="HurLthOQQEkBz4kyL5cL-1" source="HurLthOQQEkBz4kyL5cL-53" target="HurLthOQQEkBz4kyL5cL-59">
          <mxGeometry relative="1" as="geometry">
            <Array as="points" />
          </mxGeometry>
        </mxCell>
        <mxCell id="HurLthOQQEkBz4kyL5cL-53" value="0&amp;nbsp; &amp;nbsp; &amp;nbsp;1" style="shape=trapezoid;perimeter=trapezoidPerimeter;whiteSpace=wrap;html=1;fixedSize=1;rotation=90;size=10;fillColor=#f5f5f5;fontColor=#333333;strokeColor=#666666;" vertex="1" parent="HurLthOQQEkBz4kyL5cL-1">
          <mxGeometry x="520" y="62.25" width="50" height="20" as="geometry" />
        </mxCell>
        <mxCell id="HurLthOQQEkBz4kyL5cL-55" style="edgeStyle=orthogonalEdgeStyle;rounded=0;orthogonalLoop=1;jettySize=auto;html=1;exitX=1;exitY=0.25;exitDx=0;exitDy=0;entryX=0.75;entryY=1;entryDx=0;entryDy=0;fillColor=#e1d5e7;strokeColor=#9673a6;" edge="1" parent="HurLthOQQEkBz4kyL5cL-1" source="HurLthOQQEkBz4kyL5cL-2" target="HurLthOQQEkBz4kyL5cL-53">
          <mxGeometry relative="1" as="geometry" />
        </mxCell>
        <mxCell id="HurLthOQQEkBz4kyL5cL-56" value="{0, 0, 0, 0}" style="text;html=1;align=center;verticalAlign=middle;whiteSpace=wrap;rounded=0;fontSize=9;" vertex="1" parent="HurLthOQQEkBz4kyL5cL-1">
          <mxGeometry x="480" y="40" width="60" height="13.5" as="geometry" />
        </mxCell>
        <mxCell id="HurLthOQQEkBz4kyL5cL-57" style="edgeStyle=orthogonalEdgeStyle;rounded=0;orthogonalLoop=1;jettySize=auto;html=1;entryX=0.322;entryY=1.015;entryDx=0;entryDy=0;entryPerimeter=0;" edge="1" parent="HurLthOQQEkBz4kyL5cL-1" source="HurLthOQQEkBz4kyL5cL-56" target="HurLthOQQEkBz4kyL5cL-53">
          <mxGeometry relative="1" as="geometry">
            <Array as="points">
              <mxPoint x="510" y="64" />
              <mxPoint x="535" y="64" />
            </Array>
          </mxGeometry>
        </mxCell>
        <mxCell id="HurLthOQQEkBz4kyL5cL-58" value="IN1, IN2&lt;div&gt;IN3, IN4&lt;/div&gt;" style="text;html=1;align=center;verticalAlign=middle;whiteSpace=wrap;rounded=0;fontColor=#9573a5;fontSize=9;" vertex="1" parent="HurLthOQQEkBz4kyL5cL-1">
          <mxGeometry x="480" y="85.25" width="60" height="30" as="geometry" />
        </mxCell>
        <mxCell id="HurLthOQQEkBz4kyL5cL-59" value="IN1, IN2, IN3, IN4" style="text;html=1;align=left;verticalAlign=middle;whiteSpace=wrap;rounded=0;" vertex="1" parent="HurLthOQQEkBz4kyL5cL-1">
          <mxGeometry x="580" y="57.25" width="100" height="30" as="geometry" />
        </mxCell>
      </root>
    </mxGraphModel>
  </diagram>
</mxfile>
